<svg version="1.1" id="Layer_1" xmlns="http://www.w3.org/2000/svg" xmlns:xlink="http://www.w3.org/1999/xlink" x="0px" y="0px"
	 width="100%" viewBox="0 0 200 200" enable-background="new 0 0 200 200" xml:space="preserve">
<path fill="#FFF" opacity="1.000000" stroke="none" 
	d="
M155.998749,87.000000 
	C155.997437,106.820457 155.870331,126.142349 156.089310,145.460312 
	C156.139725,149.907516 154.723663,151.215988 150.383469,151.083328 
	C141.065048,150.798523 131.730637,150.907898 122.405487,151.042877 
	C119.250183,151.088562 117.329155,150.013596 115.510391,147.302567 
	C105.571068,132.487061 95.378136,117.841690 84.396759,101.863823 
	C84.208183,104.891808 84.017128,106.566383 84.013382,108.241371 
	C83.985054,120.899544 83.882202,133.559341 84.058907,146.215057 
	C84.111290,149.966782 82.784912,151.131104 79.129143,151.056595 
	C69.639412,150.863205 60.141560,150.891418 50.650330,151.042908 
	C47.275490,151.096771 45.941460,150.047394 45.953316,146.497742 
	C46.054554,116.184975 46.051727,85.871590 45.954876,55.558792 
	C45.943748,52.076931 47.149925,50.898693 50.593849,50.954636 
	C60.418011,51.114223 70.254990,50.792259 80.066597,51.177425 
	C82.220345,51.261971 84.996620,52.990620 86.286545,54.811836 
	C96.698235,69.511841 106.823120,84.414986 117.543221,99.993866 
	C117.749489,98.077553 117.982445,96.908302 117.984848,95.738579 
	C118.011917,82.580734 118.146889,69.420357 117.921646,56.266338 
	C117.849495,52.052597 119.320702,50.820618 123.387604,50.928848 
	C132.541687,51.172470 141.709885,51.146793 150.865738,50.939583 
	C154.697479,50.852859 156.162827,52.010303 156.070297,56.022228 
	C155.836075,66.176628 155.996445,76.340141 155.998749,87.000000 
z"/>
</svg>